<svg xmlns="http://www.w3.org/2000/svg" xmlns:xlink="http://www.w3.org/1999/xlink" version="1.1" viewBox="0 0 256 256" xml:space="preserve">

<defs>
</defs>
<g style="stroke: none; stroke-width: 0; stroke-dasharray: none; stroke-linecap: butt; stroke-linejoin: miter; stroke-miterlimit: 10; fill: none; fill-rule: nonzero; opacity: 1;" transform="translate(1.4065934065934016 1.4065934065934016) scale(2.81 2.81)" >
	<path d="M 40.829 52.598 c -0.156 0 -0.314 -0.036 -0.461 -0.113 c -2.804 -1.463 -5.529 -1.463 -8.334 0 c -0.488 0.256 -1.094 0.065 -1.349 -0.425 c -0.255 -0.489 -0.065 -1.093 0.424 -1.349 c 3.38 -1.762 6.806 -1.762 10.184 0 c 0.49 0.256 0.68 0.859 0.424 1.35 C 41.538 52.402 41.189 52.598 40.829 52.598 z" style="stroke: none; stroke-width: 1; stroke-dasharray: none; stroke-linecap: butt; stroke-linejoin: miter; stroke-miterlimit: 10; fill-rule: nonzero; opacity: 1;" class="color" transform=" matrix(1 0 0 1 0 0) " stroke-linecap="round" />
	<path d="M 58.428 52.598 c -0.155 0 -0.313 -0.036 -0.462 -0.113 c -2.804 -1.463 -5.53 -1.463 -8.334 0 c -0.49 0.258 -1.093 0.065 -1.349 -0.425 c -0.255 -0.489 -0.065 -1.094 0.425 -1.349 c 3.379 -1.762 6.805 -1.762 10.184 0 c 0.489 0.256 0.679 0.859 0.424 1.35 C 59.137 52.402 58.789 52.598 58.428 52.598 z" style="stroke: none; stroke-width: 1; stroke-dasharray: none; stroke-linecap: butt; stroke-linejoin: miter; stroke-miterlimit: 10; fill-rule: nonzero; opacity: 1;" class="color" transform=" matrix(1 0 0 1 0 0) " stroke-linecap="round" />
	<path d="M 44.981 77.326 c -0.005 0 -0.01 0 -0.015 0 c -3.849 -0.006 -7.679 -2.496 -11.385 -7.401 c -0.229 -0.303 -0.267 -0.709 -0.097 -1.048 c 0.169 -0.34 0.516 -0.555 0.895 -0.555 h 21.242 c 0.38 0 0.728 0.216 0.896 0.556 c 0.169 0.341 0.131 0.747 -0.1 1.05 C 52.682 74.837 48.834 77.326 44.981 77.326 z M 36.471 70.322 c 2.873 3.318 5.726 4.999 8.499 5.004 c 0.004 0 0.008 0 0.012 0 c 2.778 0 5.645 -1.681 8.54 -5.004 H 36.471 z" style="stroke: none; stroke-width: 1; stroke-dasharray: none; stroke-linecap: butt; stroke-linejoin: miter; stroke-miterlimit: 10; fill-rule: nonzero; opacity: 1;" class="color" transform=" matrix(1 0 0 1 0 0) " stroke-linecap="round" />
	<path d="M 21.874 68.927 c -0.092 0 -0.187 -0.013 -0.28 -0.04 c -5.046 -1.468 -8.57 -6.166 -8.57 -11.426 v -5.055 c 0 -2.238 1.821 -4.059 4.059 -4.059 h 3.008 c 0.552 0 1 0.447 1 1 s -0.448 1 -1 1 h -3.008 c -1.135 0 -2.059 0.924 -2.059 2.059 v 5.055 c 0 4.376 2.931 8.284 7.128 9.506 c 0.53 0.154 0.835 0.709 0.681 1.239 C 22.707 68.644 22.307 68.927 21.874 68.927 z" style="stroke: none; stroke-width: 1; stroke-dasharray: none; stroke-linecap: butt; stroke-linejoin: miter; stroke-miterlimit: 10; fill-rule: nonzero; opacity: 1;" class="color" transform=" matrix(1 0 0 1 0 0) " stroke-linecap="round" />
	<path d="M 68.124 68.926 c -0.434 0 -0.833 -0.284 -0.96 -0.721 c -0.154 -0.53 0.15 -1.085 0.681 -1.239 c 4.198 -1.221 7.131 -5.131 7.131 -9.509 v -5.051 c 0 -1.135 -0.924 -2.059 -2.059 -2.059 h -2.893 c -0.553 0 -1 -0.447 -1 -1 s 0.447 -1 1 -1 h 2.893 c 2.238 0 4.059 1.82 4.059 4.059 v 5.051 c 0 5.263 -3.525 9.962 -8.572 11.429 C 68.31 68.913 68.216 68.926 68.124 68.926 z" style="stroke: none; stroke-width: 1; stroke-dasharray: none; stroke-linecap: butt; stroke-linejoin: miter; stroke-miterlimit: 10; fill-rule: nonzero; opacity: 1;" class="color" transform=" matrix(1 0 0 1 0 0) " stroke-linecap="round" />
	<path d="M 73.438 44.754 H 16.563 c -1.602 0 -2.906 -1.304 -2.906 -2.906 v -3.841 c 0 -1.602 1.304 -2.906 2.906 -2.906 h 56.875 c 1.602 0 2.905 1.304 2.905 2.906 v 3.841 C 76.343 43.451 75.039 44.754 73.438 44.754 z M 16.563 37.102 c -0.5 0 -0.906 0.406 -0.906 0.906 v 3.841 c 0 0.5 0.406 0.906 0.906 0.906 h 56.875 c 0.499 0 0.905 -0.406 0.905 -0.906 v -3.841 c 0 -0.5 -0.406 -0.906 -0.905 -0.906 H 16.563 z" style="stroke: none; stroke-width: 1; stroke-dasharray: none; stroke-linecap: butt; stroke-linejoin: miter; stroke-miterlimit: 10; fill-rule: nonzero; opacity: 1;" class="color" transform=" matrix(1 0 0 1 0 0) " stroke-linecap="round" />
	<path d="M 71.339 37.102 H 18.661 c -0.552 0 -1 -0.448 -1 -1 V 30.26 c 0 -11.142 6.873 -21.254 17.174 -25.384 V 3.848 C 34.835 1.726 36.561 0 38.682 0 h 12.635 c 2.122 0 3.848 1.726 3.848 3.848 v 1.028 c 10.302 4.13 17.174 14.242 17.174 25.384 v 5.842 C 72.339 36.654 71.892 37.102 71.339 37.102 z M 19.661 35.102 h 50.678 V 30.26 c 0 -10.543 -6.64 -20.091 -16.521 -23.76 c -0.393 -0.146 -0.652 -0.52 -0.652 -0.938 V 3.848 C 53.165 2.829 52.336 2 51.317 2 H 38.682 c -1.019 0 -1.847 0.829 -1.847 1.848 v 1.714 c 0 0.418 -0.26 0.792 -0.652 0.938 c -9.882 3.668 -16.522 13.217 -16.522 23.76 V 35.102 z" style="stroke: none; stroke-width: 1; stroke-dasharray: none; stroke-linecap: butt; stroke-linejoin: miter; stroke-miterlimit: 10; fill-rule: nonzero; opacity: 1;" class="color" transform=" matrix(1 0 0 1 0 0) " stroke-linecap="round" />
	<path d="M 35.835 16.845 c -0.552 0 -1 -0.448 -1 -1 V 5.562 c 0 -0.552 0.448 -1 1 -1 s 1 0.448 1 1 v 10.283 C 36.835 16.397 36.387 16.845 35.835 16.845 z" style="stroke: none; stroke-width: 1; stroke-dasharray: none; stroke-linecap: butt; stroke-linejoin: miter; stroke-miterlimit: 10; fill-rule: nonzero; opacity: 1;" class="color" transform=" matrix(1 0 0 1 0 0) " stroke-linecap="round" />
	<path d="M 54.165 16.845 c -0.553 0 -1 -0.448 -1 -1 V 5.562 c 0 -0.552 0.447 -1 1 -1 s 1 0.448 1 1 v 10.283 C 55.165 16.397 54.718 16.845 54.165 16.845 z" style="stroke: none; stroke-width: 1; stroke-dasharray: none; stroke-linecap: butt; stroke-linejoin: miter; stroke-miterlimit: 10; fill-rule: nonzero; opacity: 1;" class="color" transform=" matrix(1 0 0 1 0 0) " stroke-linecap="round" />
	<path d="M 45 23.607 c -0.552 0 -1 -0.448 -1 -1 V 1 c 0 -0.552 0.448 -1 1 -1 s 1 0.448 1 1 v 21.607 C 46 23.16 45.552 23.607 45 23.607 z" style="stroke: none; stroke-width: 1; stroke-dasharray: none; stroke-linecap: butt; stroke-linejoin: miter; stroke-miterlimit: 10; fill-rule: nonzero; opacity: 1;" class="color" transform=" matrix(1 0 0 1 0 0) " stroke-linecap="round" />
	<path d="M 45 90 c -1.583 0 -3.141 -0.273 -4.632 -0.812 c -11.432 -4.131 -19.473 -14.626 -20.486 -26.739 l -0.938 -18.645 c -0.014 -0.273 0.085 -0.541 0.274 -0.739 c 0.189 -0.199 0.451 -0.311 0.725 -0.311 h 50.376 c 0.276 0 0.54 0.114 0.729 0.316 s 0.286 0.473 0.269 0.748 l -1.197 18.612 c -1.015 12.132 -9.056 22.627 -20.487 26.758 C 48.142 89.727 46.583 90 45 90 z M 20.994 44.754 l 0.883 17.562 c 0.946 11.303 8.472 21.125 19.171 24.991 c 2.544 0.918 5.361 0.918 7.904 0 c 10.699 -3.866 18.225 -13.688 19.173 -25.024 l 1.127 -17.529 H 20.994 z" style="stroke: none; stroke-width: 1; stroke-dasharray: none; stroke-linecap: butt; stroke-linejoin: miter; stroke-miterlimit: 10; fill-rule: nonzero; opacity: 1;" class="color" transform=" matrix(1 0 0 1 0 0) " stroke-linecap="round" />
</g>
</svg>