<svg viewBox="0 0 273 267" xmlns="http://www.w3.org/2000/svg">
    <path
        d="M267.169 6.29484C267.143 7.90904 268.445 9.23689 270.059 9.26293C271.672 9.28896 273 7.98714 273.026 6.37294C273.052 4.75873 271.75 3.43096 270.137 3.40492C268.497 3.37889 267.169 4.68063 267.169 6.29484Z"
        class="color" />
    <path
        d="M240.827 5.98242C240.801 7.59662 242.102 8.92439 243.716 8.95043C245.33 8.97646 246.658 7.67472 246.684 6.06052C246.71 4.44631 245.408 3.11846 243.794 3.09242C242.154 3.06639 240.853 4.36821 240.827 5.98242Z"
        class="color" />
    <path
        d="M214.485 5.67016C214.459 7.28437 215.76 8.61214 217.374 8.63817C218.988 8.66421 220.315 7.36247 220.341 5.74826C220.367 4.13406 219.066 2.8062 217.452 2.78017C215.838 2.75413 214.511 4.05595 214.485 5.67016Z"
        class="color" />
    <path
        d="M188.168 5.35766C188.142 6.97187 189.444 8.29964 191.058 8.32567C192.672 8.35171 193.999 7.04997 194.025 5.43576C194.051 3.82156 192.75 2.4937 191.136 2.46767C189.496 2.44163 188.168 3.74345 188.168 5.35766Z"
        class="color" />
    <path
        d="M161.826 5.01914C161.8 6.63335 163.101 7.96112 164.715 7.98715C166.329 8.01319 167.657 6.71145 167.683 5.09724C167.709 3.48304 166.407 2.15519 164.793 2.12915C163.179 2.12915 161.852 3.40493 161.826 5.01914Z"
        class="color" />
    <path
        d="M135.484 4.70678C135.458 6.32099 136.759 7.64876 138.373 7.67479C139.987 7.70083 141.314 6.39909 141.34 4.78488C141.366 3.17068 140.065 1.84283 138.451 1.81679C136.837 1.79075 135.51 3.09257 135.484 4.70678Z"
        class="color" />
    <path
        d="M109.167 4.3942C109.141 6.00841 110.443 7.33626 112.057 7.36229C113.67 7.38833 114.998 6.08651 115.024 4.4723C115.05 2.8581 113.749 1.53033 112.135 1.50429C110.495 1.47825 109.167 2.78 109.167 4.3942Z"
        class="color" />
    <path
        d="M82.8248 4.08195C82.7988 5.69615 84.1003 7.024 85.7141 7.05004C87.328 7.07607 88.6556 5.77425 88.6816 4.16005C88.7076 2.54584 87.4062 1.21807 85.7923 1.19203C84.1524 1.166 82.8509 2.46774 82.8248 4.08195Z"
        class="color" />
    <path
        d="M56.4824 3.74343C56.4564 5.35763 57.7579 6.68548 59.3717 6.71152C60.9856 6.73756 62.3132 5.43574 62.3392 3.82153C62.3652 2.20732 61.0637 0.879551 59.4498 0.853516C57.836 0.853516 56.5085 2.12922 56.4824 3.74343Z"
        class="color" />
    <path
        d="M30.14 3.43093C30.114 5.04513 31.4155 6.37298 33.0294 6.39902C34.6433 6.42506 35.9708 5.12324 35.9968 3.50903C36.0228 1.89482 34.7214 0.567051 33.1075 0.541016C31.4936 0.541016 30.1661 1.81672 30.14 3.43093Z"
        class="color" />
    <path
        d="M3.82375 3.11857C3.79772 4.73277 5.09918 6.06062 6.71304 6.08666C8.3269 6.1127 9.65447 4.81088 9.6805 3.19667C9.70653 1.58246 8.40499 0.254691 6.79113 0.228655C5.17727 0.20262 3.84978 1.50436 3.82375 3.11857Z"
        class="color" />
    <path
        d="M266.883 29.7007C266.857 31.3149 268.159 32.6428 269.772 32.6688C271.386 32.6948 272.714 31.393 272.74 29.7788C272.766 28.1646 271.464 26.8368 269.85 26.8108C268.211 26.8108 266.909 28.0865 266.883 29.7007Z"
        class="color" />
    <path
        d="M240.541 29.3883C240.515 31.0025 241.816 32.3304 243.43 32.3564C245.044 32.3825 246.371 31.0807 246.397 29.4664C246.423 27.8522 245.122 26.5245 243.508 26.4984C241.894 26.4724 240.567 27.7741 240.541 29.3883Z"
        class="color" />
    <path
        d="M214.198 29.0758C214.172 30.69 215.474 32.0179 217.088 32.0439C218.702 32.07 220.029 30.7682 220.055 29.1539C220.081 27.5397 218.78 26.212 217.166 26.1859C215.552 26.1599 214.224 27.4616 214.198 29.0758Z"
        class="color" />
    <path
        d="M187.882 28.7634C187.856 30.3776 189.157 31.7054 190.771 31.7314C192.385 31.7575 193.713 30.4557 193.739 28.8415C193.765 27.2273 192.463 25.8995 190.849 25.8734C189.21 25.8474 187.882 27.1492 187.882 28.7634Z"
        class="color" />
    <path
        d="M161.54 28.4512C161.514 30.0654 162.815 31.3931 164.429 31.4192C166.043 31.4452 167.37 30.1435 167.396 28.5293C167.422 26.9151 166.121 25.5872 164.507 25.5612C162.893 25.5351 161.566 26.837 161.54 28.4512Z"
        class="color" />
    <path
        d="M135.197 28.1387C135.171 29.7529 136.473 31.0807 138.087 31.1067C139.7 31.1327 141.028 29.831 141.054 28.2168C141.08 26.6026 139.779 25.2747 138.165 25.2487C136.551 25.2226 135.223 26.4984 135.197 28.1387Z"
        class="color" />
    <path
        d="M108.881 27.8003C108.855 29.4145 110.156 30.7423 111.77 30.7683C113.384 30.7943 114.712 29.4926 114.738 27.8784C114.764 26.2642 113.462 24.9363 111.848 24.9103C110.208 24.8843 108.881 26.1861 108.881 27.8003Z"
        class="color" />
    <path
        d="M82.5386 27.4878C82.5126 29.102 83.814 30.4298 85.4279 30.4558C87.0417 30.4818 88.3693 29.1801 88.3953 27.5659C88.4214 25.9517 87.1198 24.6238 85.5059 24.5978C83.892 24.5718 82.5646 25.8736 82.5386 27.4878Z"
        class="color" />
    <path
        d="M56.1961 27.1752C56.17 28.7894 57.4716 30.1173 59.0854 30.1433C60.6993 30.1693 62.0268 28.8675 62.0528 27.2533C62.0788 25.6391 60.7774 24.3113 59.1635 24.2853C57.5497 24.2593 56.2221 25.561 56.1961 27.1752Z"
        class="color" />
    <path
        d="M29.8798 26.863C29.8537 28.4772 31.1552 29.805 32.7691 29.8311C34.3829 29.8571 35.7105 28.5553 35.7365 26.9411C35.7626 25.3269 34.461 23.9991 32.8472 23.973C31.2073 23.947 29.8798 25.2227 29.8798 26.863Z"
        class="color" />
    <path
        d="M3.53737 26.5244C3.51134 28.1386 4.81288 29.4665 6.42674 29.4925C8.0406 29.5186 9.36809 28.2167 9.39412 26.6025C9.42015 24.9883 8.11869 23.6606 6.50483 23.6345C4.89097 23.6345 3.5634 24.9102 3.53737 26.5244Z"
        class="color" />
    <path
        d="M266.597 53.1327C266.571 54.7469 267.872 56.0748 269.486 56.1008C271.1 56.1269 272.427 54.825 272.453 53.2108C272.479 51.5966 271.178 50.2689 269.564 50.2428C267.95 50.2168 266.623 51.5185 266.597 53.1327Z"
        class="color" />
    <path
        d="M240.254 52.8205C240.228 54.4347 241.53 55.7625 243.144 55.7886C244.757 55.8146 246.085 54.5128 246.111 52.8986C246.137 51.2844 244.836 49.9566 243.222 49.9306C241.608 49.9045 240.28 51.1802 240.254 52.8205Z"
        class="color" />
    <path
        d="M213.938 52.482C213.912 54.0962 215.213 55.424 216.827 55.45C218.441 55.4761 219.769 54.1743 219.795 52.5601C219.821 50.9458 218.519 49.6181 216.905 49.592C215.266 49.592 213.938 50.8677 213.938 52.482Z"
        class="color" />
    <path
        d="M187.596 52.1696C187.57 53.7838 188.871 55.1116 190.485 55.1377C192.099 55.1637 193.426 53.8619 193.452 52.2477C193.479 50.6335 192.177 49.3057 190.563 49.2797C188.923 49.2536 187.622 50.5554 187.596 52.1696Z"
        class="color" />
    <path
        d="M161.253 51.8571C161.227 53.4713 162.529 54.7991 164.143 54.8252C165.756 54.8512 167.084 53.5494 167.11 51.9352C167.136 50.321 165.835 48.9932 164.221 48.9672C162.607 48.9411 161.279 50.2429 161.253 51.8571Z"
        class="color" />
    <path
        d="M134.911 51.5447C134.885 53.1589 136.186 54.4866 137.8 54.5127C139.414 54.5387 140.742 53.237 140.768 51.6228C140.794 50.0086 139.492 48.6807 137.878 48.6547C136.264 48.6286 134.937 49.9305 134.911 51.5447Z"
        class="color" />
    <path
        d="M108.594 51.2063C108.568 52.8205 109.87 54.1484 111.484 54.1744C113.098 54.2004 114.425 52.8986 114.451 51.2844C114.477 49.6702 113.176 48.3424 111.562 48.3164C109.922 48.3164 108.621 49.5921 108.594 51.2063Z"
        class="color" />
    <path
        d="M82.2522 50.8938C82.2262 52.508 83.5278 53.8358 85.1417 53.8618C86.7555 53.8878 88.0829 52.5861 88.109 50.9719C88.135 49.3577 86.8335 48.0298 85.2197 48.0038C83.6058 47.9778 82.2782 49.2796 82.2522 50.8938Z"
        class="color" />
    <path
        d="M55.9098 50.5813C55.8838 52.1955 57.1852 53.5233 58.7991 53.5493C60.413 53.5753 61.7405 52.2736 61.7666 50.6594C61.7926 49.0452 60.491 47.7173 58.8772 47.6913C57.2633 47.6653 55.9358 48.9671 55.9098 50.5813Z"
        class="color" />
    <path
        d="M29.5935 50.269C29.5675 51.8832 30.869 53.211 32.4829 53.2371C34.0968 53.2631 35.4242 51.9613 35.4503 50.3471C35.4763 48.7329 34.1748 47.4051 32.561 47.379C30.9211 47.353 29.6196 48.6548 29.5935 50.269Z"
        class="color" />
    <path
        d="M3.25112 49.9565C3.22509 51.5707 4.52655 52.8985 6.14041 52.9246C7.75427 52.9506 9.08184 51.6488 9.10787 50.0346C9.1339 48.4204 7.83236 47.0926 6.21849 47.0665C4.60463 47.0405 3.27715 48.3423 3.25112 49.9565Z"
        class="color" />
    <path
        d="M266.31 76.5388C266.284 78.153 267.586 79.4808 269.2 79.5068C270.814 79.5329 272.141 78.2311 272.167 76.6169C272.193 75.0027 270.892 73.6749 269.278 73.6488C267.664 73.6228 266.336 74.9246 266.31 76.5388Z"
        class="color" />
    <path
        d="M239.968 76.2266C239.942 77.8408 241.243 79.1685 242.857 79.1946C244.471 79.2206 245.799 77.9189 245.825 76.3047C245.851 74.6905 244.549 73.3626 242.935 73.3366C241.322 73.3105 239.994 74.6124 239.968 76.2266Z"
        class="color" />
    <path
        d="M213.652 75.914C213.626 77.5282 214.927 78.856 216.541 78.8821C218.155 78.9081 219.482 77.6063 219.509 75.9921C219.535 74.3779 218.233 73.0501 216.619 73.0241C214.979 72.998 213.652 74.2998 213.652 75.914Z"
        class="color" />
    <path
        d="M187.309 75.6016C187.283 77.2158 188.585 78.5437 190.199 78.5697C191.812 78.5697 193.14 77.2939 193.166 75.6797C193.192 74.0655 191.891 72.7378 190.277 72.7117C188.663 72.6596 187.335 73.9614 187.309 75.6016Z"
        class="color" />
    <path
        d="M160.967 75.2631C160.941 76.8773 162.242 78.2052 163.856 78.2312C165.47 78.2572 166.798 76.9554 166.824 75.3412C166.85 73.727 165.548 72.3992 163.934 72.3732C162.32 72.3472 160.993 73.6489 160.967 75.2631Z"
        class="color" />
    <path
        d="M134.651 74.9506C134.625 76.5648 135.926 77.8927 137.54 77.9187C139.154 77.9447 140.481 76.6429 140.507 75.0287C140.533 73.4145 139.232 72.0867 137.618 72.0607C135.978 72.0347 134.651 73.3364 134.651 74.9506Z"
        class="color" />
    <path
        d="M108.308 74.6383C108.282 76.2525 109.584 77.5804 111.198 77.6064C112.811 77.6325 114.139 76.3307 114.165 74.7164C114.191 73.1022 112.89 71.7745 111.276 71.7484C109.662 71.7224 108.334 73.0241 108.308 74.6383Z"
        class="color" />
    <path
        d="M81.9658 74.3259C81.9398 75.9401 83.2413 77.2679 84.8551 77.2939C86.469 77.32 87.7966 76.0182 87.8226 74.404C87.8486 72.7898 86.5472 71.462 84.9333 71.4359C83.3194 71.4099 81.9919 72.7117 81.9658 74.3259Z"
        class="color" />
    <path
        d="M55.6496 73.9873C55.6235 75.6015 56.925 76.9294 58.5388 76.9554C60.1527 76.9815 61.4803 75.6796 61.5063 74.0654C61.5323 72.4512 60.2308 71.1234 58.6169 71.0974C56.977 71.0974 55.6496 72.3731 55.6496 73.9873Z"
        class="color" />
    <path
        d="M29.3071 73.675C29.2811 75.2892 30.5826 76.617 32.1964 76.6431C33.8103 76.6691 35.1379 75.3674 35.1639 73.7531C35.1899 72.1389 33.8884 70.8111 32.2745 70.7851C30.6607 70.759 29.3332 72.0608 29.3071 73.675Z"
        class="color" />
    <path
        d="M2.96474 73.3625C2.93871 74.9767 4.24025 76.3045 5.85411 76.3306C7.46797 76.3566 8.79546 75.0549 8.82149 73.4406C8.84752 71.8264 7.54606 70.4986 5.9322 70.4726C4.31834 70.4465 2.99077 71.7483 2.96474 73.3625Z"
        class="color" />
    <path
        d="M266.024 99.9448C265.998 101.559 267.299 102.887 268.913 102.913C270.527 102.939 271.855 101.637 271.881 100.023C271.907 98.4087 270.605 97.081 268.992 97.0549C267.378 97.0549 266.05 98.3306 266.024 99.9448Z"
        class="color" />
    <path
        d="M239.682 99.6323C239.656 101.247 240.957 102.574 242.571 102.6C244.185 102.626 245.512 101.325 245.538 99.7104C245.564 98.0962 244.263 96.7684 242.649 96.7423C241.035 96.7163 239.708 98.0181 239.682 99.6323Z"
        class="color" />
    <path
        d="M213.365 99.3201C213.339 100.934 214.641 102.262 216.255 102.288C217.868 102.314 219.196 101.012 219.222 99.3982C219.248 97.784 217.946 96.4561 216.333 96.4301C214.693 96.404 213.365 97.7059 213.365 99.3201Z"
        class="color" />
    <path
        d="M187.023 99.0076C186.997 100.622 188.298 101.95 189.912 101.976C191.526 102.002 192.854 100.7 192.88 99.0857C192.906 97.4715 191.604 96.1436 189.99 96.1176C188.376 96.0915 187.049 97.3673 187.023 99.0076Z"
        class="color" />
    <path
        d="M160.681 98.669C160.655 100.283 161.956 101.611 163.57 101.637C165.184 101.663 166.511 100.361 166.537 98.7471C166.563 97.1329 165.262 95.8051 163.648 95.7791C162.034 95.7791 160.707 97.0548 160.681 98.669Z"
        class="color" />
    <path
        d="M134.364 98.3567C134.338 99.9709 135.64 101.299 137.253 101.325C138.867 101.351 140.195 100.049 140.221 98.4348C140.247 96.8206 138.945 95.4927 137.332 95.4667C135.692 95.4407 134.39 96.7425 134.364 98.3567Z"
        class="color" />
    <path
        d="M108.022 98.0441C107.996 99.6583 109.297 100.986 110.911 101.012C112.525 101.038 113.853 99.7364 113.879 98.1222C113.905 96.508 112.603 95.1802 110.989 95.1542C109.375 95.1282 108.048 96.4299 108.022 98.0441Z"
        class="color" />
    <path
        d="M81.6795 97.7318C81.6534 99.3461 82.9549 100.674 84.5688 100.7C86.1826 100.726 87.5102 99.4242 87.5362 97.81C87.5622 96.1957 86.2608 94.868 84.6469 94.8419C83.0331 94.8159 81.7055 96.1176 81.6795 97.7318Z"
        class="color" />
    <path
        d="M55.3631 97.4193C55.337 99.0336 56.6386 100.361 58.2524 100.387C59.8663 100.413 61.1938 99.1117 61.2198 97.4975C61.2458 95.8832 59.9444 94.5555 58.3305 94.5294C56.7167 94.5034 55.3891 95.8051 55.3631 97.4193Z"
        class="color" />
    <path
        d="M29.0208 97.0808C28.9947 98.695 30.2963 100.023 31.9101 100.049C33.524 100.075 34.8515 98.7731 34.8775 97.1589C34.9035 95.5447 33.6021 94.217 31.9882 94.1909C30.3744 94.1909 29.0468 95.4666 29.0208 97.0808Z"
        class="color" />
    <path
        d="M2.67836 96.7685C2.65233 98.3827 3.95379 99.7105 5.56765 99.7366C7.18151 99.7626 8.50908 98.4608 8.53511 96.8466C8.56114 95.2324 7.2596 93.9046 5.64574 93.8786C4.03188 93.8525 2.70439 95.1543 2.67836 96.7685Z"
        class="color" />
    <path
        d="M265.738 123.377C265.712 124.991 267.013 126.319 268.627 126.345C270.241 126.371 271.568 125.069 271.594 123.455C271.62 121.841 270.319 120.513 268.705 120.487C267.091 120.461 265.764 121.763 265.738 123.377Z"
        class="color" />
    <path
        d="M239.421 123.038C239.395 124.653 240.697 125.981 242.311 126.007C243.925 126.033 245.252 124.731 245.278 123.117C245.304 121.502 244.003 120.175 242.389 120.149C240.749 120.123 239.421 121.424 239.421 123.038Z"
        class="color" />
    <path
        d="M213.079 122.726C213.053 124.34 214.354 125.668 215.968 125.694C217.582 125.72 218.91 124.418 218.936 122.804C218.962 121.19 217.66 119.862 216.046 119.836C214.433 119.81 213.105 121.112 213.079 122.726Z"
        class="color" />
    <path
        d="M186.737 122.414C186.711 124.028 188.012 125.356 189.626 125.382C191.24 125.408 192.567 124.106 192.593 122.492C192.619 120.877 191.318 119.55 189.704 119.524C188.09 119.498 186.763 120.799 186.737 122.414Z"
        class="color" />
    <path
        d="M160.42 122.101C160.394 123.716 161.696 125.043 163.31 125.069C164.923 125.095 166.251 123.794 166.277 122.179C166.303 120.565 165.002 119.237 163.388 119.211C161.748 119.185 160.42 120.487 160.42 122.101Z"
        class="color" />
    <path
        d="M134.078 121.789C134.052 123.403 135.353 124.731 136.967 124.757C138.581 124.783 139.909 123.481 139.935 121.867C139.961 120.253 138.659 118.925 137.045 118.899C135.432 118.873 134.104 120.149 134.078 121.789Z"
        class="color" />
    <path
        d="M107.736 121.45C107.71 123.065 109.011 124.392 110.625 124.418C112.239 124.444 113.566 123.143 113.592 121.529C113.618 119.914 112.317 118.586 110.703 118.56C109.089 118.534 107.762 119.836 107.736 121.45Z"
        class="color" />
    <path
        d="M81.4192 121.138C81.3932 122.752 82.6948 124.08 84.3087 124.106C85.9225 124.132 87.2499 122.83 87.276 121.216C87.302 119.602 86.0005 118.274 84.3867 118.248C82.7468 118.222 81.4192 119.524 81.4192 121.138Z"
        class="color" />
    <path
        d="M55.0768 120.825C55.0508 122.44 56.3522 123.767 57.9661 123.793C59.58 123.819 60.9075 122.518 60.9335 120.903C60.9596 119.289 59.658 117.961 58.0442 117.935C56.4303 117.909 55.1028 119.211 55.0768 120.825Z"
        class="color" />
    <path
        d="M28.7345 120.513C28.7085 122.127 30.0099 123.455 31.6238 123.481C33.2377 123.507 34.5652 122.205 34.5913 120.591C34.6173 118.977 33.3158 117.649 31.7019 117.623C30.088 117.597 28.7605 118.873 28.7345 120.513Z"
        class="color" />
    <path
        d="M2.41811 120.201C2.39208 121.815 3.69362 123.143 5.30748 123.169C6.92134 123.195 8.24883 121.893 8.27486 120.279C8.30089 118.665 6.99943 117.337 5.38557 117.311C3.74568 117.285 2.41811 118.56 2.41811 120.201Z"
        class="color" />
    <path
        d="M265.451 146.783C265.425 148.397 266.727 149.725 268.341 149.751C269.955 149.777 271.282 148.475 271.308 146.861C271.334 145.247 270.033 143.919 268.419 143.893C266.805 143.867 265.477 145.169 265.451 146.783Z"
        class="color" />
    <path
        d="M239.135 146.445C239.109 148.059 240.41 149.387 242.024 149.413C243.638 149.439 244.966 148.137 244.992 146.523C245.018 144.909 243.716 143.581 242.102 143.555C240.463 143.555 239.161 144.83 239.135 146.445Z"
        class="color" />
    <path
        d="M212.793 146.132C212.767 147.746 214.068 149.074 215.682 149.1C217.296 149.126 218.623 147.824 218.649 146.21C218.676 144.596 217.374 143.268 215.76 143.242C214.146 143.242 212.819 144.518 212.793 146.132Z"
        class="color" />
    <path
        d="M186.45 145.82C186.424 147.434 187.726 148.762 189.34 148.788C190.953 148.814 192.281 147.512 192.307 145.898C192.333 144.284 191.032 142.956 189.418 142.93C187.804 142.904 186.476 144.206 186.45 145.82Z"
        class="color" />
    <path
        d="M160.134 145.507C160.108 147.121 161.409 148.449 163.023 148.475C164.637 148.501 165.965 147.2 165.991 145.585C166.017 143.971 164.715 142.643 163.101 142.617C161.487 142.591 160.134 143.893 160.134 145.507Z"
        class="color" />
    <path
        d="M133.792 145.195C133.766 146.809 135.067 148.137 136.681 148.163C138.295 148.189 139.622 146.887 139.649 145.273C139.675 143.659 138.373 142.331 136.759 142.305C135.145 142.279 133.818 143.581 133.792 145.195Z"
        class="color" />
    <path
        d="M107.449 144.882C107.423 146.497 108.725 147.824 110.339 147.85C111.953 147.876 113.28 146.575 113.306 144.96C113.332 143.346 112.031 142.018 110.417 141.992C108.803 141.966 107.475 143.268 107.449 144.882Z"
        class="color" />
    <path
        d="M81.133 144.544C81.1069 146.158 82.4084 147.486 84.0222 147.512C85.6361 147.538 86.9637 146.236 86.9897 144.622C87.0157 143.008 85.7143 141.68 84.1004 141.654C82.4605 141.654 81.159 142.93 81.133 144.544Z"
        class="color" />
    <path
        d="M54.7905 144.231C54.7645 145.846 56.0661 147.173 57.6799 147.199C59.2938 147.225 60.6213 145.924 60.6473 144.31C60.6733 142.695 59.3719 141.367 57.758 141.341C56.1441 141.315 54.8166 142.617 54.7905 144.231Z"
        class="color" />
    <path
        d="M28.4481 143.919C28.4221 145.533 29.7236 146.861 31.3375 146.887C32.9514 146.913 34.2789 145.611 34.3049 143.997C34.3309 142.383 33.0295 141.055 31.4156 141.029C29.8017 141.003 28.4742 142.305 28.4481 143.919Z"
        class="color" />
    <path
        d="M2.13185 143.607C2.10582 145.221 3.40729 146.549 5.02115 146.575C6.63501 146.601 7.96257 145.299 7.9886 143.685C8.01463 142.071 6.71309 140.743 5.09923 140.717C3.45934 140.691 2.13185 141.992 2.13185 143.607Z"
        class="color" />
    <path
        d="M265.191 170.189C265.165 171.803 266.466 173.131 268.08 173.157C269.694 173.183 271.022 171.881 271.048 170.267C271.074 168.653 269.772 167.325 268.159 167.299C266.519 167.273 265.191 168.575 265.191 170.189Z"
        class="color" />
    <path
        d="M238.849 169.876C238.823 171.491 240.124 172.818 241.738 172.844C243.352 172.871 244.679 171.569 244.706 169.955C244.732 168.34 243.43 167.013 241.816 166.986C240.202 166.96 238.875 168.262 238.849 169.876Z"
        class="color" />
    <path
        d="M212.506 169.564C212.48 171.178 213.782 172.506 215.396 172.532C217.01 172.558 218.337 171.256 218.363 169.642C218.389 168.028 217.088 166.7 215.474 166.674C213.86 166.648 212.532 167.95 212.506 169.564Z"
        class="color" />
    <path
        d="M186.19 169.225C186.164 170.84 187.466 172.167 189.079 172.193C190.693 172.219 192.021 170.918 192.047 169.304C192.073 167.689 190.771 166.361 189.157 166.335C187.518 166.335 186.19 167.611 186.19 169.225Z"
        class="color" />
    <path
        d="M159.848 168.913C159.822 170.527 161.123 171.855 162.737 171.881C164.351 171.907 165.678 170.605 165.704 168.991C165.73 167.377 164.429 166.049 162.815 166.023C161.201 165.997 159.874 167.299 159.848 168.913Z"
        class="color" />
    <path
        d="M133.505 168.6C133.479 170.215 134.781 171.543 136.395 171.569C138.009 171.595 139.336 170.293 139.362 168.679C139.388 167.064 138.087 165.737 136.473 165.711C134.859 165.685 133.531 166.986 133.505 168.6Z"
        class="color" />
    <path
        d="M107.189 168.288C107.163 169.902 108.464 171.23 110.078 171.256C111.692 171.282 113.02 169.981 113.046 168.366C113.072 166.752 111.77 165.424 110.156 165.398C108.517 165.372 107.189 166.674 107.189 168.288Z"
        class="color" />
    <path
        d="M80.8466 167.976C80.8205 169.59 82.122 170.918 83.7359 170.944C85.3497 170.97 86.6773 169.668 86.7033 168.054C86.7294 166.44 85.4279 165.112 83.814 165.086C82.2002 165.06 80.8726 166.336 80.8466 167.976Z"
        class="color" />
    <path
        d="M54.5042 167.637C54.4781 169.251 55.7796 170.579 57.3935 170.605C59.0073 170.631 60.3349 169.33 60.3609 167.715C60.3869 166.101 59.0854 164.773 57.4715 164.747C55.8577 164.747 54.5302 166.023 54.5042 167.637Z"
        class="color" />
    <path
        d="M28.1879 167.325C28.1619 168.939 29.4634 170.267 31.0773 170.293C32.6911 170.319 34.0186 169.017 34.0446 167.403C34.0707 165.789 32.7692 164.461 31.1553 164.435C29.5155 164.409 28.1879 165.711 28.1879 167.325Z"
        class="color" />
    <path
        d="M1.84548 167.012C1.81945 168.627 3.12099 169.954 4.73485 169.98C6.34871 170.006 7.6762 168.705 7.70223 167.091C7.72826 165.476 6.42679 164.148 4.81293 164.122C3.19907 164.096 1.87151 165.398 1.84548 167.012Z"
        class="color" />
    <path
        d="M264.905 193.595C264.879 195.209 266.18 196.537 267.794 196.563C269.408 196.589 270.735 195.287 270.761 193.673C270.787 192.059 269.486 190.731 267.872 190.705C266.258 190.679 264.905 191.981 264.905 193.595Z"
        class="color" />
    <path
        d="M238.562 193.282C238.536 194.897 239.838 196.224 241.452 196.25C243.066 196.277 244.393 194.975 244.419 193.361C244.445 191.746 243.144 190.419 241.53 190.392C239.916 190.366 238.588 191.668 238.562 193.282Z"
        class="color" />
    <path
        d="M212.22 192.97C212.194 194.584 213.495 195.912 215.109 195.938C216.723 195.964 218.051 194.663 218.077 193.048C218.103 191.434 216.801 190.106 215.187 190.08C213.573 190.054 212.246 191.356 212.22 192.97Z"
        class="color" />
    <path
        d="M185.904 192.658C185.878 194.272 187.179 195.6 188.793 195.626C190.407 195.652 191.734 194.35 191.76 192.736C191.786 191.122 190.485 189.794 188.871 189.768C187.231 189.742 185.93 191.044 185.904 192.658Z"
        class="color" />
    <path
        d="M159.561 192.319C159.535 193.933 160.837 195.261 162.45 195.287C164.064 195.313 165.392 194.011 165.418 192.397C165.444 190.783 164.142 189.455 162.529 189.429C160.915 189.429 159.587 190.731 159.561 192.319Z"
        class="color" />
    <path
        d="M133.219 192.007C133.193 193.621 134.494 194.949 136.108 194.975C137.722 195.001 139.05 193.699 139.076 192.085C139.102 190.471 137.8 189.143 136.186 189.117C134.572 189.091 133.245 190.393 133.219 192.007Z"
        class="color" />
    <path
        d="M106.903 191.694C106.877 193.308 108.178 194.636 109.792 194.662C111.406 194.688 112.733 193.387 112.759 191.772C112.785 190.158 111.484 188.83 109.87 188.804C108.23 188.778 106.903 190.08 106.903 191.694Z"
        class="color" />
    <path
        d="M80.5602 191.382C80.5342 192.996 81.8356 194.324 83.4495 194.35C85.0634 194.376 86.3909 193.074 86.4169 191.46C86.443 189.846 85.1415 188.518 83.5277 188.492C81.9138 188.466 80.5862 189.768 80.5602 191.382Z"
        class="color" />
    <path
        d="M54.2178 191.069C54.1918 192.684 55.4933 194.012 57.1072 194.038C58.721 194.064 60.0485 192.762 60.0745 191.148C60.1006 189.533 58.7991 188.206 57.1852 188.18C55.5714 188.154 54.2438 189.455 54.2178 191.069Z"
        class="color" />
    <path
        d="M27.9015 190.757C27.8755 192.371 29.1769 193.699 30.7908 193.725C32.4047 193.751 33.7322 192.449 33.7583 190.835C33.7843 189.221 32.4827 187.893 30.8689 187.867C29.229 187.841 27.9015 189.117 27.9015 190.757Z"
        class="color" />
    <path
        d="M1.5591 190.419C1.53307 192.033 2.83453 193.361 4.44839 193.387C6.06225 193.413 7.38982 192.111 7.41585 190.497C7.44188 188.883 6.14034 187.555 4.52648 187.529C2.91262 187.503 1.58513 188.804 1.5591 190.419Z"
        class="color" />
    <path
        d="M264.618 217.027C264.592 218.641 265.894 219.969 267.508 219.995C269.122 220.021 270.449 218.719 270.475 217.105C270.501 215.491 269.2 214.163 267.586 214.137C265.972 214.111 264.644 215.413 264.618 217.027Z"
        class="color" />
    <path
        d="M238.276 216.714C238.25 218.329 239.551 219.656 241.165 219.683C242.779 219.683 244.107 218.407 244.133 216.793C244.159 215.178 242.857 213.851 241.243 213.825C239.629 213.772 238.302 215.074 238.276 216.714Z"
        class="color" />
    <path
        d="M211.96 216.376C211.934 217.99 213.235 219.318 214.849 219.344C216.463 219.37 217.79 218.068 217.816 216.454C217.842 214.84 216.541 213.512 214.927 213.486C213.287 213.46 211.96 214.762 211.96 216.376Z"
        class="color" />
    <path
        d="M185.617 216.063C185.591 217.678 186.893 219.005 188.507 219.031C190.12 219.058 191.448 217.756 191.474 216.142C191.5 214.527 190.199 213.2 188.585 213.173C186.971 213.147 185.643 214.449 185.617 216.063Z"
        class="color" />
    <path
        d="M159.275 215.751C159.249 217.365 160.55 218.693 162.164 218.719C163.778 218.745 165.106 217.444 165.132 215.829C165.158 214.215 163.856 212.887 162.242 212.861C160.629 212.835 159.301 214.137 159.275 215.751Z"
        class="color" />
    <path
        d="M132.959 215.439C132.933 217.053 134.234 218.381 135.848 218.407C137.462 218.433 138.789 217.131 138.815 215.517C138.841 213.903 137.54 212.575 135.926 212.549C134.286 212.523 132.959 213.825 132.959 215.439Z"
        class="color" />
    <path
        d="M106.616 215.1C106.59 216.714 107.892 218.042 109.506 218.068C111.12 218.094 112.447 216.793 112.473 215.178C112.499 213.564 111.198 212.236 109.584 212.21C107.944 212.21 106.642 213.486 106.616 215.1Z"
        class="color" />
    <path
        d="M80.2739 214.788C80.2479 216.402 81.5494 217.73 83.1632 217.756C84.7771 217.782 86.1047 216.48 86.1307 214.866C86.1567 213.252 84.8551 211.924 83.2412 211.898C81.6274 211.872 80.3 213.174 80.2739 214.788Z"
        class="color" />
    <path
        d="M53.9314 214.475C53.9054 216.089 55.2068 217.417 56.8207 217.443C58.4346 217.469 59.7621 216.168 59.7882 214.553C59.8142 212.939 58.5127 211.611 56.8988 211.585C55.2849 211.559 53.9574 212.861 53.9314 214.475Z"
        class="color" />
    <path
        d="M27.6151 214.163C27.5891 215.777 28.8906 217.105 30.5045 217.131C32.1184 217.157 33.4458 215.855 33.4719 214.241C33.4979 212.627 32.1964 211.299 30.5826 211.273C28.9687 211.247 27.6412 212.549 27.6151 214.163Z"
        class="color" />
    <path
        d="M1.27272 213.851C1.24669 215.465 2.54823 216.793 4.16209 216.819C5.77595 216.845 7.10344 215.543 7.12947 213.929C7.1555 212.314 5.85404 210.987 4.24018 210.961C2.62632 210.935 1.29875 212.21 1.27272 213.851Z"
        class="color" />
    <path
        d="M264.332 240.433C264.306 242.047 265.607 243.375 267.221 243.401C268.835 243.427 270.163 242.125 270.189 240.511C270.215 238.897 268.913 237.569 267.3 237.543C265.686 237.517 264.358 238.819 264.332 240.433Z"
        class="color" />
    <path
        d="M237.99 240.121C237.964 241.735 239.265 243.063 240.879 243.089C242.493 243.115 243.82 241.813 243.846 240.199C243.872 238.584 242.571 237.257 240.957 237.231C239.343 237.205 238.016 238.506 237.99 240.121Z"
        class="color" />
    <path
        d="M211.673 239.782C211.647 241.396 212.949 242.724 214.563 242.75C216.177 242.776 217.504 241.474 217.53 239.86C217.556 238.246 216.255 236.918 214.641 236.892C213.001 236.892 211.673 238.168 211.673 239.782Z"
        class="color" />
    <path
        d="M185.331 239.47C185.305 241.084 186.607 242.412 188.22 242.438C189.834 242.464 191.162 241.162 191.188 239.548C191.214 237.934 189.912 236.606 188.299 236.58C186.685 236.554 185.357 237.855 185.331 239.47Z"
        class="color" />
    <path
        d="M158.989 239.157C158.963 240.771 160.264 242.099 161.878 242.125C163.492 242.151 164.819 240.849 164.845 239.235C164.871 237.621 163.57 236.293 161.956 236.267C160.342 236.241 159.015 237.543 158.989 239.157Z"
        class="color" />
    <path
        d="M132.672 238.845C132.646 240.459 133.948 241.787 135.562 241.813C137.176 241.839 138.503 240.537 138.529 238.923C138.555 237.309 137.254 235.981 135.64 235.955C134 235.929 132.672 237.231 132.672 238.845Z"
        class="color" />
    <path
        d="M106.33 238.532C106.304 240.146 107.605 241.474 109.219 241.5C110.833 241.526 112.161 240.225 112.187 238.61C112.213 236.996 110.911 235.668 109.297 235.642C107.683 235.616 106.356 236.892 106.33 238.532Z"
        class="color" />
    <path
        d="M79.9876 238.194C79.9615 239.808 81.2632 241.136 82.877 241.162C84.4909 241.188 85.8183 239.886 85.8443 238.272C85.8703 236.658 84.5689 235.33 82.955 235.304C81.3412 235.278 80.0136 236.58 79.9876 238.194Z"
        class="color" />
    <path
        d="M53.6712 237.881C53.6451 239.496 54.9467 240.823 56.5605 240.849C58.1744 240.875 59.5019 239.574 59.5279 237.959C59.5539 236.345 58.2525 235.017 56.6386 234.991C54.9987 234.965 53.6712 236.267 53.6712 237.881Z"
        class="color" />
    <path
        d="M27.3289 237.569C27.3028 239.183 28.6043 240.511 30.2182 240.537C31.832 240.563 33.1596 239.261 33.1856 237.647C33.2117 236.033 31.9101 234.705 30.2963 234.679C28.6824 234.653 27.3549 235.955 27.3289 237.569Z"
        class="color" />
    <path
        d="M0.986468 237.257C0.960438 238.871 2.2619 240.199 3.87576 240.225C5.48962 240.251 6.81719 238.949 6.84322 237.335C6.86925 235.72 5.56771 234.393 3.95385 234.367C2.33999 234.341 1.0125 235.642 0.986468 237.257Z"
        class="color" />
    <path
        d="M264.046 263.839C264.02 265.453 265.321 266.781 266.935 266.807C268.549 266.833 269.877 265.531 269.903 263.917C269.929 262.303 268.627 260.975 267.013 260.949C265.399 260.923 264.072 262.225 264.046 263.839Z"
        class="color" />
    <path
        d="M237.729 263.527C237.703 265.141 239.005 266.469 240.619 266.495C242.233 266.521 243.56 265.219 243.586 263.605C243.612 261.991 242.311 260.663 240.697 260.637C239.057 260.611 237.729 261.912 237.729 263.527Z"
        class="color" />
    <path
        d="M211.387 263.214C211.361 264.828 212.663 266.156 214.276 266.182C215.89 266.182 217.218 264.906 217.244 263.292C217.27 261.678 215.968 260.35 214.354 260.324C212.715 260.298 211.413 261.6 211.387 263.214Z"
        class="color" />
    <path
        d="M185.045 262.902C185.019 264.516 186.32 265.844 187.934 265.87C189.548 265.896 190.875 264.594 190.901 262.98C190.927 261.365 189.626 260.038 188.012 260.012C186.398 259.986 185.071 261.287 185.045 262.902Z"
        class="color" />
    <path
        d="M158.702 262.563C158.676 264.177 159.978 265.505 161.592 265.531C163.206 265.557 164.533 264.256 164.559 262.641C164.585 261.027 163.284 259.699 161.67 259.673C160.056 259.673 158.728 260.949 158.702 262.563Z"
        class="color" />
    <path
        d="M132.386 262.251C132.36 263.865 133.661 265.193 135.275 265.219C136.889 265.245 138.217 263.943 138.243 262.329C138.269 260.715 136.967 259.387 135.353 259.361C133.739 259.335 132.412 260.636 132.386 262.251Z"
        class="color" />
    <path
        d="M106.044 261.938C106.018 263.553 107.319 264.88 108.933 264.906C110.547 264.933 111.874 263.631 111.9 262.016C111.926 260.402 110.625 259.075 109.011 259.048C107.397 259.022 106.07 260.324 106.044 261.938Z"
        class="color" />
    <path
        d="M79.7273 261.626C79.7013 263.24 81.0027 264.568 82.6166 264.594C84.2305 264.62 85.558 263.318 85.5841 261.704C85.6101 260.09 84.3086 258.762 82.6948 258.736C81.0549 258.71 79.7273 260.012 79.7273 261.626Z"
        class="color" />
    <path
        d="M53.3849 261.287C53.3589 262.902 54.6603 264.229 56.2742 264.255C57.8881 264.282 59.2156 262.98 59.2417 261.365C59.2677 259.751 57.9661 258.423 56.3523 258.397C54.7124 258.397 53.4109 259.673 53.3849 261.287Z"
        class="color" />
    <path
        d="M27.0425 260.975C27.0165 262.589 28.318 263.917 29.9319 263.943C31.5457 263.969 32.8732 262.667 32.8992 261.053C32.9253 259.439 31.6238 258.111 30.01 258.085C28.3961 258.059 27.0685 259.361 27.0425 260.975Z"
        class="color" />
    <path
        d="M0.700091 260.663C0.674061 262.277 1.9756 263.605 3.58946 263.631C5.20332 263.657 6.53081 262.355 6.55684 260.741C6.58287 259.126 5.28141 257.799 3.66755 257.773C2.05369 257.747 0.726121 259.048 0.700091 260.663Z"
        class="color" />
</svg>