<?xml version="1.0" encoding="utf-8"?>
<svg version="1.1" xmlns="http://www.w3.org/2000/svg" xmlns:xlink="http://www.w3.org/1999/xlink"
    x="0px" y="0px" viewBox="0 0 256 256" enable-background="new 0 0 256 256" xml:space="preserve">
<metadata> Svg Vector Icons : http://www.onlinewebfonts.com/icon </metadata>
<g><g><path class="color" d="M10,128c0,65.2,52.8,118,118,118c29.7,0,56.8-11,77.6-29.1c-3.1-1.8-5.6-4.8-6.9-8.2c-18.9,16.6-43.6,26.6-70.7,26.6c-59.3,0-107.3-48-107.3-107.3c0-59.3,48-107.3,107.3-107.3c59.3,0,107.3,48,107.3,107.3c0,21.9-6.6,42.4-17.9,59.4c3.6,0.9,6.8,2.9,9.1,5.7c12.4-18.7,19.6-41,19.6-65.1c0-65.2-52.8-118-118-118C62.8,10,10,62.8,10,128z"/><path class="color" d="M101.6,122.6C101.6,122.6,101.7,122.6,101.6,122.6l12.5,12.3l4.3-4.3l-4.7-4.6l-2.1-2.1l10.8-10.6l1.4,0.1c0.4,0,0.7,0.1,1.1,0.1c0.7,0,1.5-0.1,2.2-0.2l-7.9-7.8c-0.2-0.2-0.3-0.3-0.5-0.5c2.5-8.7,0.2-18.4-6.7-25.2c-6.9-6.8-16.6-9-25.4-6.7l14.8,14.6L97.5,102l-14.5,3.9L68.1,91.3c-2.4,8.6-0.1,18.2,6.8,25C82.1,123.4,92.5,125.5,101.6,122.6L101.6,122.6z M145.5,131.3c-0.2,1.1-0.3,2.1-0.2,3.3l0.2,1.4l-1,1l-7.7,7.6l-2.1,2.1l-6.8-6.7l-4.3,4.3l39.2,38.6c2.4,2.4,5.6,3.6,8.7,3.6s6.3-1.2,8.7-3.6c4.8-4.8,4.8-12.5,0-17.2L145.5,131.3L145.5,131.3z M175.7,178.8l-6.2,1.6l-5-5l1.7-6.1l6.2-1.6l5,5L175.7,178.8L175.7,178.8z M127.9,135.8l6.8,6.7l7.7-7.6c-0.4-3.7,0.8-7.5,3.7-10.4c2.9-2.8,6.8-4,10.5-3.6l33.6-33.1l-18.8-18.5l-33.6,33.1c0.4,3.7-0.8,7.5-3.7,10.4c-2.9,2.8-6.8,4-10.5,3.6l-7.7,7.6l6.8,6.7l-33.2,32.7l-1.2-1.2l-6.4,5.1l-10.7,16.7l2.7,2.7L90.9,176l5.1-6.3l-1.2-1.2L127.9,135.8L127.9,135.8z"/></g></g>
</svg>